<?xml version="1.0" encoding="iso-8859-1"?>
<svg version="1.1" id="Capa_1" xmlns="http://www.w3.org/2000/svg"  x="0px" y="0px" fill="#50ae55"
	 width="30px" height="30px" viewBox="0 0 60.531 60.531" style="enable-background:new 0 0 60.531 60.531;"
	 xml:space="preserve">
<g>
	<g>
		<path d="M9.09,42.95c-0.115,0.02-0.197,0.045-0.247,0.074c-0.084,0.049-0.127,0.124-0.127,0.228c0,0.092,0.026,0.159,0.077,0.2
			c0.053,0.04,0.115,0.061,0.19,0.061c0.118,0,0.226-0.034,0.325-0.102c0.1-0.068,0.15-0.192,0.154-0.372v-0.2
			c-0.034,0.021-0.069,0.038-0.104,0.051c-0.035,0.015-0.083,0.027-0.145,0.037L9.09,42.95z"/>
		<polygon points="18.08,34.038 17.302,35.383 18.08,35.383 		"/>
		<path d="M21.34,42.95c-0.115,0.02-0.197,0.045-0.247,0.074c-0.084,0.049-0.127,0.124-0.127,0.228c0,0.092,0.026,0.159,0.077,0.2
			c0.052,0.04,0.114,0.061,0.189,0.061c0.118,0,0.226-0.034,0.325-0.102c0.099-0.068,0.15-0.192,0.154-0.372v-0.2
			c-0.035,0.021-0.069,0.038-0.104,0.051c-0.036,0.015-0.083,0.027-0.145,0.037L21.34,42.95z"/>
		<path d="M14.763,42.17c-0.138,0-0.245,0.04-0.321,0.118c-0.076,0.077-0.124,0.184-0.144,0.318h0.927
			c-0.01-0.144-0.057-0.251-0.144-0.324C14.996,42.208,14.89,42.17,14.763,42.17z"/>
		<path d="M23.188,35.963c0.078-0.104,0.117-0.236,0.117-0.399c0-0.183-0.044-0.322-0.133-0.419C23.083,35.048,22.974,35,22.845,35
			c-0.105,0-0.197,0.031-0.278,0.095c-0.121,0.094-0.181,0.243-0.181,0.453c0,0.167,0.045,0.305,0.135,0.411
			c0.09,0.105,0.206,0.158,0.345,0.158C23.002,36.117,23.109,36.064,23.188,35.963z"/>
		<path d="M5.687,36.113c0.183,0,0.302-0.096,0.358-0.286s0.085-0.465,0.085-0.822c0-0.377-0.028-0.654-0.085-0.837
			c-0.056-0.181-0.176-0.271-0.358-0.271c-0.182,0-0.303,0.092-0.361,0.271c-0.059,0.182-0.088,0.46-0.088,0.837
			c0,0.357,0.029,0.632,0.088,0.822C5.384,36.017,5.504,36.113,5.687,36.113z"/>
		<path d="M60.531,6.029h-3.56l-1.118,1.119L54.735,6.03h-1.104h-0.764h-1.104l-1.118,1.118L49.527,6.03h-1.105h-0.763h-1.104
			l-1.118,1.118L44.318,6.03h-1.104h-0.763h-1.104l-1.118,1.118L39.11,6.03h-1.104h-0.764h-1.104L35.02,7.148L33.902,6.03h-3.279
			l-0.195,0.495c-0.024,0.062-0.824,2.162-1.629,5.938H3.776C1.694,12.462,0,14.178,0,16.288v28.165
			c0,2.109,1.694,3.825,3.776,3.825h25.328c0.37,1.836,0.796,3.713,1.294,5.64l0.152,0.585h3.231l1.238-1.238l1.239,1.238h1.104
			h0.521h1.104l1.238-1.238l1.237,1.238h1.107h0.521h1.104l1.238-1.238l1.238,1.238h1.106h0.521h1.105l1.237-1.238l1.238,1.238
			h1.106h0.521h1.104l1.238-1.238l1.237,1.238h3.343l-0.267-0.987c-7.178-26.419-0.093-46.236-0.02-46.435L60.531,6.029z
			 M55.979,19.303c-0.03,0.254-0.064,0.493-0.093,0.753c-0.547,4.979-0.817,11.825,0.093,19.847
			c0.463,4.071,1.223,8.441,2.418,13.035h-0.657l-1.886-1.886l-1.887,1.886h-1.436l-1.888-1.886l-1.887,1.886H47.32l-1.886-1.886
			l-1.886,1.886h-1.437l-1.887-1.886l-1.888,1.886h-1.436l-1.887-1.886l-1.886,1.886h-1.373c-0.401-1.585-0.754-3.139-1.067-4.663
			c-0.072-0.35-0.135-0.693-0.202-1.042c-0.068-0.346-0.14-0.697-0.202-1.041c-0.144-0.783-0.275-1.557-0.397-2.321
			c-0.059-0.373-0.112-0.74-0.166-1.109c-0.016-0.104-0.033-0.209-0.047-0.313c-0.018-0.119-0.038-0.242-0.054-0.36
			c-1.677-11.943-0.778-21.465,0.345-27.542c0.066-0.359,0.133-0.707,0.201-1.042c0.073-0.362,0.146-0.709,0.219-1.042
			c0.534-2.438,1.053-4.098,1.315-4.87h1.549l1.765,1.765l1.765-1.765h1.678l1.766,1.765l1.764-1.765h1.678l1.766,1.765l1.765-1.765
			h1.678l1.765,1.765L52.4,7.592h1.679l1.765,1.765l1.766-1.765h0.712C57.771,9.4,56.672,13.482,55.979,19.303z M27.234,41.784
			h0.521v0.301c0.068-0.106,0.134-0.183,0.196-0.229c0.019-0.014,0.043-0.021,0.064-0.032c0.018,0.128,0.038,0.258,0.056,0.388
			c-0.108,0.031-0.198,0.088-0.248,0.2c-0.034,0.081-0.052,0.187-0.052,0.313v1.112h-0.539L27.234,41.784L27.234,41.784z
			 M25.509,43.429c0.021,0.021,0.086,0.031,0.196,0.031c0.017,0,0.033,0,0.052-0.002c0.019,0,0.037,0,0.054-0.002v0.402l-0.255,0.01
			c-0.254,0.008-0.429-0.036-0.521-0.133c-0.061-0.062-0.091-0.155-0.091-0.286v-1.266h-0.288V41.8h0.288v-0.574h0.532V41.8h0.334
			v0.384h-0.334v1.087C25.477,43.355,25.488,43.407,25.509,43.429z M25.613,35.135c-0.088,0.193-0.167,0.429-0.237,0.71
			c-0.071,0.28-0.105,0.51-0.105,0.688h-0.638c0.019-0.56,0.202-1.142,0.551-1.745c0.225-0.376,0.415-0.636,0.566-0.783h-1.555
			l0.009-0.552h2.204v0.48c-0.091,0.09-0.22,0.251-0.384,0.482C25.858,34.648,25.724,34.889,25.613,35.135z M16.845,35.863v-0.537
			l1.147-1.895h0.688v1.951h0.353v0.48H18.68v0.671h-0.6v-0.671H16.845z M18.249,41.056h0.582v2.283h1.389v0.499h-1.971V41.056z
			 M19.615,36.378c-0.191-0.16-0.297-0.387-0.318-0.679h0.612c0.024,0.133,0.071,0.236,0.139,0.31
			c0.069,0.072,0.169,0.108,0.301,0.108c0.152,0,0.268-0.054,0.347-0.161c0.08-0.107,0.119-0.241,0.119-0.402
			c0-0.16-0.037-0.295-0.111-0.404c-0.075-0.108-0.19-0.163-0.348-0.163c-0.074,0-0.139,0.008-0.193,0.027
			c-0.096,0.034-0.167,0.098-0.217,0.192l-0.55-0.026l0.219-1.725h1.716v0.521h-1.275l-0.111,0.683
			c0.095-0.061,0.169-0.104,0.222-0.123c0.088-0.033,0.197-0.049,0.325-0.049c0.258,0,0.483,0.087,0.675,0.261
			c0.191,0.174,0.289,0.426,0.289,0.758c0,0.288-0.093,0.545-0.277,0.772c-0.185,0.227-0.461,0.34-0.83,0.34
			C20.049,36.616,19.805,36.536,19.615,36.378z M21.624,42.213c-0.059-0.033-0.147-0.048-0.261-0.048
			c-0.129,0-0.22,0.031-0.274,0.095c-0.039,0.047-0.064,0.109-0.076,0.188h-0.519c0.011-0.181,0.062-0.328,0.152-0.444
			c0.143-0.181,0.389-0.271,0.736-0.271c0.226,0,0.427,0.045,0.603,0.135c0.176,0.089,0.264,0.258,0.264,0.506v0.944
			c0,0.065,0.001,0.145,0.004,0.238c0.004,0.071,0.014,0.118,0.032,0.144c0.018,0.025,0.043,0.046,0.079,0.062v0.079h-0.585
			c-0.017-0.04-0.027-0.079-0.035-0.115c-0.006-0.037-0.011-0.079-0.014-0.125c-0.075,0.08-0.161,0.148-0.258,0.206
			c-0.117,0.066-0.248,0.1-0.395,0.1c-0.188,0-0.343-0.053-0.465-0.159s-0.183-0.258-0.183-0.452c0-0.253,0.098-0.437,0.294-0.551
			c0.107-0.061,0.266-0.105,0.476-0.132l0.185-0.022c0.1-0.013,0.172-0.028,0.214-0.047c0.077-0.032,0.116-0.083,0.116-0.153
			C21.714,42.303,21.683,42.245,21.624,42.213z M21.987,36.123c-0.145-0.258-0.218-0.589-0.218-0.994
			c0-0.239,0.011-0.434,0.031-0.582c0.035-0.266,0.105-0.486,0.208-0.662c0.089-0.152,0.206-0.272,0.351-0.363
			c0.143-0.092,0.316-0.139,0.517-0.139c0.29,0,0.521,0.074,0.693,0.224c0.172,0.148,0.269,0.346,0.291,0.592h-0.61
			c0-0.05-0.02-0.104-0.059-0.164c-0.066-0.099-0.166-0.147-0.299-0.147c-0.199,0-0.342,0.11-0.426,0.335
			c-0.046,0.123-0.077,0.306-0.095,0.547c0.076-0.09,0.165-0.156,0.264-0.197c0.1-0.042,0.216-0.063,0.345-0.063
			c0.277,0,0.504,0.094,0.681,0.283c0.177,0.187,0.266,0.428,0.266,0.72s-0.086,0.549-0.26,0.771
			c-0.174,0.224-0.444,0.334-0.81,0.334C22.463,36.616,22.174,36.451,21.987,36.123z M23.853,43.167
			c-0.05-0.031-0.239-0.086-0.563-0.163c-0.233-0.058-0.398-0.13-0.494-0.217c-0.096-0.085-0.144-0.208-0.144-0.369
			c0-0.19,0.075-0.354,0.224-0.49c0.149-0.136,0.359-0.205,0.632-0.205c0.257,0,0.466,0.052,0.628,0.154
			c0.163,0.104,0.255,0.28,0.279,0.531h-0.537c-0.007-0.069-0.027-0.124-0.06-0.165c-0.06-0.072-0.161-0.108-0.303-0.108
			c-0.118,0-0.201,0.017-0.251,0.054c-0.05,0.036-0.075,0.079-0.075,0.13c0,0.062,0.027,0.105,0.08,0.135
			c0.053,0.028,0.241,0.078,0.561,0.148c0.215,0.05,0.375,0.126,0.483,0.228c0.105,0.104,0.158,0.232,0.158,0.388
			c0,0.204-0.077,0.371-0.229,0.499c-0.152,0.129-0.386,0.193-0.704,0.193c-0.324,0-0.563-0.069-0.717-0.205
			c-0.154-0.137-0.231-0.311-0.231-0.522h0.545c0.012,0.097,0.036,0.164,0.074,0.205c0.067,0.071,0.191,0.107,0.372,0.107
			c0.106,0,0.191-0.016,0.253-0.047c0.062-0.032,0.093-0.079,0.093-0.142C23.928,43.244,23.903,43.197,23.853,43.167z M14.5,43.396
			c0.083,0.052,0.182,0.077,0.297,0.077c0.123,0,0.222-0.031,0.299-0.095c0.042-0.034,0.079-0.081,0.11-0.142h0.549
			c-0.014,0.122-0.081,0.246-0.199,0.372c-0.184,0.199-0.442,0.3-0.774,0.3c-0.273,0-0.515-0.084-0.725-0.253
			c-0.21-0.169-0.313-0.443-0.313-0.824c0-0.355,0.095-0.631,0.283-0.82c0.189-0.189,0.435-0.284,0.736-0.284
			c0.179,0,0.34,0.032,0.483,0.097c0.144,0.063,0.263,0.166,0.355,0.304c0.084,0.123,0.139,0.265,0.164,0.427
			c0.014,0.095,0.021,0.23,0.018,0.407h-1.499C14.294,43.168,14.366,43.312,14.5,43.396z M12.818,42.337
			c-0.048-0.096-0.135-0.145-0.265-0.145c-0.149,0-0.251,0.062-0.307,0.186c-0.029,0.065-0.043,0.144-0.043,0.235v1.225h-0.542
			v-1.225c0-0.122-0.013-0.212-0.038-0.266c-0.046-0.101-0.134-0.149-0.267-0.149c-0.153,0-0.256,0.051-0.31,0.149
			c-0.029,0.057-0.044,0.141-0.044,0.254v1.238h-0.545v-2.055h0.523v0.301c0.066-0.107,0.129-0.184,0.188-0.229
			c0.104-0.079,0.24-0.12,0.406-0.12c0.157,0,0.285,0.035,0.381,0.104c0.079,0.064,0.138,0.146,0.177,0.247
			c0.071-0.121,0.159-0.21,0.262-0.267c0.111-0.057,0.235-0.085,0.371-0.085c0.09,0,0.18,0.019,0.269,0.053
			c0.087,0.036,0.168,0.098,0.239,0.186c0.059,0.072,0.097,0.161,0.117,0.265c0.013,0.069,0.019,0.171,0.019,0.305l-0.004,1.296
			h-0.551v-1.31C12.856,42.45,12.843,42.387,12.818,42.337z M7.23,34.382v-0.418c0.193-0.01,0.329-0.021,0.407-0.039
			c0.123-0.027,0.223-0.081,0.301-0.163c0.053-0.057,0.093-0.131,0.12-0.225c0.015-0.057,0.024-0.098,0.024-0.125h0.512v3.121H7.964
			v-2.151H7.23z M5.947,26.781v-1.986H7.94v2.031H5.952C5.952,26.811,5.947,26.796,5.947,26.781z M13.751,26.781
			c0,0.016-0.004,0.03-0.004,0.045h-1.99v-2.031h1.994V26.781z M7.94,29.437c-0.795-0.238-1.448-0.809-1.771-1.564H7.94V29.437z
			 M8.986,27.872h1.724v1.692H8.986V27.872z M11.757,27.872h1.771c-0.323,0.755-0.975,1.327-1.771,1.564V27.872z M11.234,23.749
			L11.234,23.749L10.71,23.75v3.076H8.986v-5.067h1.98c1.257,0,2.31,0.843,2.654,1.99H11.234z M7.94,23.749H6.076
			c0.269-0.895,0.97-1.594,1.864-1.861V23.749z M5.687,33.391c0.398,0,0.676,0.141,0.836,0.422c0.161,0.279,0.24,0.676,0.24,1.192
			c0,0.515-0.081,0.911-0.24,1.189c-0.161,0.279-0.438,0.418-0.836,0.418S5.01,36.474,4.85,36.194
			c-0.161-0.277-0.239-0.675-0.239-1.189c0-0.517,0.08-0.913,0.239-1.192C5.009,33.531,5.29,33.391,5.687,33.391z M5.558,41.056
			h0.609l1.105,1.941v-1.941h0.542v2.784H7.234L6.1,41.864v1.976H5.558V41.056z M9.374,42.213c-0.059-0.033-0.147-0.048-0.262-0.048
			c-0.129,0-0.22,0.031-0.273,0.095c-0.039,0.047-0.063,0.109-0.076,0.188h-0.52c0.012-0.181,0.062-0.328,0.152-0.444
			c0.143-0.181,0.389-0.271,0.735-0.271c0.226,0,0.427,0.045,0.603,0.135c0.176,0.089,0.264,0.258,0.264,0.506v0.944
			c0,0.065,0.001,0.145,0.004,0.238c0.004,0.071,0.015,0.118,0.033,0.144c0.017,0.025,0.044,0.046,0.079,0.062v0.079H9.527
			C9.511,43.8,9.5,43.761,9.493,43.725c-0.007-0.037-0.012-0.079-0.015-0.125c-0.075,0.08-0.16,0.148-0.258,0.206
			c-0.116,0.066-0.248,0.1-0.395,0.1c-0.188,0-0.343-0.053-0.464-0.159c-0.122-0.106-0.184-0.258-0.184-0.452
			c0-0.253,0.098-0.437,0.295-0.551c0.107-0.061,0.267-0.105,0.476-0.132l0.184-0.022c0.1-0.013,0.172-0.028,0.215-0.047
			c0.077-0.032,0.115-0.083,0.115-0.153C9.462,42.303,9.434,42.245,9.374,42.213z M9.514,36.534
			c0.006-0.224,0.054-0.428,0.144-0.613c0.087-0.209,0.294-0.428,0.62-0.66c0.282-0.202,0.465-0.348,0.549-0.436
			c0.128-0.136,0.192-0.285,0.192-0.447c0-0.133-0.037-0.241-0.109-0.329c-0.073-0.087-0.178-0.131-0.315-0.131
			c-0.186,0-0.313,0.069-0.381,0.208c-0.039,0.081-0.062,0.209-0.069,0.384H9.548c0.011-0.267,0.059-0.479,0.145-0.645
			c0.163-0.312,0.454-0.466,0.873-0.466c0.33,0,0.592,0.092,0.788,0.273c0.196,0.184,0.293,0.425,0.293,0.727
			c0,0.23-0.069,0.437-0.208,0.615c-0.09,0.119-0.239,0.252-0.446,0.397l-0.246,0.174c-0.154,0.11-0.259,0.188-0.315,0.236
			c-0.057,0.05-0.104,0.105-0.143,0.171h1.362v0.54L9.514,36.534L9.514,36.534z M13.015,36.611c-0.441,0-0.748-0.145-0.92-0.432
			c-0.091-0.154-0.141-0.355-0.15-0.604h0.603c0,0.125,0.02,0.228,0.061,0.311c0.074,0.151,0.209,0.227,0.406,0.227
			c0.12,0,0.225-0.043,0.314-0.124c0.09-0.084,0.135-0.201,0.135-0.357c0-0.204-0.083-0.343-0.25-0.411
			c-0.094-0.038-0.244-0.058-0.445-0.058v-0.439c0.199-0.004,0.337-0.022,0.417-0.059c0.135-0.062,0.204-0.183,0.204-0.366
			c0-0.118-0.034-0.216-0.104-0.29c-0.069-0.075-0.166-0.111-0.292-0.111c-0.145,0-0.251,0.045-0.319,0.137
			c-0.067,0.092-0.1,0.216-0.098,0.368h-0.573c0.006-0.155,0.033-0.303,0.08-0.441c0.05-0.122,0.129-0.234,0.236-0.338
			c0.081-0.073,0.176-0.129,0.285-0.168c0.111-0.039,0.246-0.058,0.407-0.058c0.297,0,0.539,0.077,0.722,0.23
			s0.274,0.361,0.274,0.622c0,0.183-0.054,0.337-0.164,0.464c-0.069,0.079-0.141,0.132-0.216,0.161c0.057,0,0.136,0.048,0.241,0.144
			c0.156,0.145,0.234,0.343,0.234,0.594c0,0.264-0.091,0.496-0.274,0.696C13.644,36.512,13.374,36.611,13.015,36.611z"/>
		<polygon points="35.805,41.767 34.203,41.767 33.907,41.767 32.967,41.767 32.641,41.767 32.641,42.2 32.641,43.971 
			52.814,43.971 52.814,41.767 36.244,41.767 		"/>
		<polygon points="36.93,18.39 38.979,18.39 39.089,18.39 41.138,18.39 41.957,18.39 42.116,18.39 42.831,18.39 44.134,18.39 
			46.326,18.39 47.628,18.39 48.503,18.39 50.391,18.39 50.391,16.827 33.327,16.827 33.327,18.39 35.952,18.39 		"/>
		<polygon points="34.578,23.722 35.122,23.722 39.182,23.722 40.307,23.722 40.849,23.722 41.393,23.722 42.944,23.722 
			43.488,23.722 44.031,23.722 44.607,23.722 49.066,23.722 49.349,23.722 49.349,22.16 49.312,22.16 44.159,22.16 43.638,22.16 
			43.115,22.16 41.146,22.16 40.625,22.16 40.104,22.16 34.951,22.16 34.43,22.16 33.909,22.16 32.285,22.16 32.285,23.722 
			34.035,23.722 		"/>
		<polygon points="49.349,27.492 40.277,27.492 37.79,27.492 32.285,27.492 32.285,29.054 49.349,29.054 		"/>
		<polygon points="33.327,33.651 33.327,34.386 33.688,34.386 34.929,34.386 35.557,34.386 36.527,34.386 37.121,34.386 
			37.98,34.386 38.608,34.386 41.416,34.386 41.99,34.386 42.78,34.386 43.395,34.386 44.379,34.386 44.843,34.386 45.045,34.386 
			45.646,34.386 46.46,34.386 46.952,34.386 48.8,34.386 49.388,34.386 50.391,34.386 50.391,34.198 50.391,33.527 50.391,32.823 
			33.327,32.823 		"/>
	</g>
</g>
<g>
</g>
<g>
</g>
<g>
</g>
<g>
</g>
<g>
</g>
<g>
</g>
<g>
</g>
<g>
</g>
<g>
</g>
<g>
</g>
<g>
</g>
<g>
</g>
<g>
</g>
<g>
</g>
<g>
</g>
</svg>
