<?xml version="1.0" encoding="iso-8859-1"?>
<!-- Generator: Adobe Illustrator 19.0.0, SVG Export Plug-In . SVG Version: 6.00 Build 0)  -->
<svg version="1.1" id="Capa_1" xmlns="http://www.w3.org/2000/svg" xmlns:xlink="http://www.w3.org/1999/xlink" x="0px" y="0px"
	 viewBox="0 0 496 496" style="enable-background:new 0 0 496 496;" xml:space="preserve">
<g>
	<g>
		<circle cx="288" cy="168" r="8" fill="rgb(255,255,200)"/>
	</g>
</g>
<g>
	<g>
		<circle cx="208" cy="168" r="8" fill="rgb(255,255,200)"/>
	</g>
</g>
<g>
	<g>
		<path d="M264,208c0,8.824-7.176,16-16,16c-8.824,0-16-7.176-16-16h-16c0,17.648,14.352,32,32,32s32-14.352,32-32H264z" fill="rgb(255,255,200)"/>
	</g>
</g>
<g>
	<g>
		<path d="M385.048,288h-2.832c-4.848,0-9.608,0.728-14.216,1.968V120C368,53.832,314.168,0,248,0S128,53.832,128,120v169.968
			c-4.608-1.24-9.368-1.968-14.216-1.968h-2.832C80.648,288,56,312.648,56,342.952c0,7.024,1.32,13.888,3.928,20.416L72,393.536V496
			h352V393.536l12.072-30.168c2.608-6.528,3.928-13.392,3.928-20.416C440,312.648,415.352,288,385.048,288z M144,120
			c0-57.344,46.656-104,104-104s104,46.656,104,104v2.952c-1.736-1.968-3.712-3.736-5.896-5.24
			c4.448-9.304,4.24-20.448-1.112-29.712c-5.344-9.264-14.888-15.016-25.168-15.824C319.016,61.896,313.264,52.352,304,47
			c-9.264-5.344-20.4-5.544-29.712-1.104C268.448,37.392,258.704,32,248,32c-10.704,0-20.448,5.392-26.288,13.896
			C212.4,41.448,201.264,41.656,192,47c-9.264,5.352-15.016,14.896-15.824,25.176c-10.28,0.808-19.832,6.552-25.168,15.824
			c-5.352,9.264-5.552,20.408-1.112,29.712c-2.192,1.504-4.16,3.272-5.896,5.24V120z M248,264c-39.704,0-72-32.296-72-72v-48h144v48
			C320,231.704,287.704,264,248,264z M280,273.888v20.224L267.056,320h-38.112L216,294.112v-20.224
			c9.936,3.896,20.704,6.112,32,6.112S270.064,277.784,280,273.888z M248,72c34.192,0,62.84,23.984,70.144,56H304v-16h-16v16h-16
			v-16h-16v16h-16v-16h-16v16h-16v-16h-16v16h-14.144C185.16,95.984,213.808,72,248,72z M200,60.856
			c5.352-3.088,11.88-2.52,16.888,0.928c-9.032,3.432-17.4,8.224-24.736,14.264C191.624,69.944,194.608,63.968,200,60.856z
			 M233.576,57.288C236.16,51.704,241.752,48,248,48s11.84,3.704,14.424,9.288C257.72,56.504,252.92,56,248,56
			C243.08,56,238.28,56.504,233.576,57.288z M279.112,61.784c5.008-3.456,11.528-4.016,16.888-0.928
			c5.392,3.112,8.376,9.088,7.848,15.192C296.512,70.008,288.144,65.216,279.112,61.784z M315.96,88.16
			c6.088-0.52,12.064,2.448,15.176,7.84c3.096,5.36,2.528,11.88-0.92,16.896C326.784,103.864,321.992,95.496,315.96,88.16z
			 M165.784,112.896c-3.448-5.016-4.016-11.536-0.92-16.896c3.088-5.344,8.992-8.096,15.032-7.648
			C173.928,95.64,169.184,103.936,165.784,112.896z M296,265.656c17.68-11.56,30.912-29.304,36.712-50.136
			c7.2-0.856,13.776-3.56,19.288-7.728v89.28c-0.088,0.064-0.184,0.096-0.264,0.152l-9.096,6.064L296,289.968V265.656z
			 M334.712,129.576c4.04,1.872,7.088,5.32,8.464,9.456c-2.408-0.992-4.928-1.752-7.544-2.264
			C335.432,134.336,335.104,131.944,334.712,129.576z M335.664,198.632c0.168-2.2,0.336-4.392,0.336-6.632v-38.528
			c9.288,3.312,16,12.112,16,22.528C352,186.536,345.128,195.416,335.664,198.632z M351.752,144H352v0.208
			C351.912,144.136,351.84,144.064,351.752,144z M161.288,129.568c-0.392,2.384-0.72,4.776-0.92,7.2
			c-2.616,0.512-5.136,1.264-7.544,2.256C154.2,134.888,157.248,131.44,161.288,129.568z M144,144h0.248
			c-0.088,0.064-0.16,0.136-0.248,0.208V144z M160,153.472V192c0,2.24,0.168,4.432,0.336,6.632C150.872,195.416,144,186.536,144,176
			C144,165.584,150.712,156.784,160,153.472z M144,207.792c5.512,4.168,12.088,6.872,19.288,7.728
			c5.792,20.84,19.032,38.576,36.712,50.136v24.312l-46.64,13.32l-9.096-6.064c-0.088-0.056-0.184-0.096-0.264-0.152V207.792z
			 M152,480H88v-89.536l-13.208-33.032c-1.856-4.624-2.792-9.496-2.792-14.48C72,321.48,89.48,304,110.952,304h2.832
			c7.72,0,15.192,2.256,21.608,6.536l9.896,6.6l3.816,11.456c1.92,5.768,2.896,11.792,2.896,17.888
			c0,12.16-4.016,24.208-11.696,34.456C132.368,391.504,128,404.616,128,417.832c0,16.432,6.4,31.872,18.016,43.496l5.984,5.984V480
			z M208,480h-40v-19.312l-10.672-10.672C148.736,441.424,144,429.992,144,417.832c0-9.784,3.232-19.48,9.488-27.824
			C162.84,377.536,168,362.072,168,346.48c0-7.824-1.248-15.536-3.728-22.944l-2.04-6.136l9.632-2.752l16.632,38.816
			c3.448,8.04,10.944,13.44,19.504,14.352V480z M235.312,368h25.376L248,380.688L235.312,368z M268.688,424L248,444.688L227.312,424
			L248,403.312L268.688,424z M236.688,392L224,404.688v-25.376L236.688,392z M236.688,456L224,468.688v-25.376L236.688,456z
			 M235.312,480L248,467.312L260.688,480H235.312z M272,468.688L259.312,456L272,443.312V468.688z M272,404.688L259.312,392
			L272,379.312V404.688z M210.552,352c-3.2,0-6.088-1.904-7.352-4.84l-15.832-36.944l16.448-4.704l10.824,21.632
			c2.712,5.464,8.192,8.856,14.304,8.856h38.112c6.112,0,11.592-3.392,14.312-8.84l10.824-21.64l16.448,4.704l-15.832,36.936
			c-1.272,2.936-4.152,4.84-7.352,4.84H210.552z M328,460.688V480h-40V367.808c8.56-0.912,16.056-6.312,19.504-14.36l16.632-38.808
			l9.632,2.752l-2.04,6.136c-2.48,7.408-3.728,15.128-3.728,22.952c0,15.592,5.16,31.056,14.896,44.056
			c5.872,7.824,9.104,17.52,9.104,27.296c0,12.16-4.736,23.584-13.328,32.176L328,460.688z M421.208,357.432L408,390.464V480h-64
			v-12.688l5.984-5.984C361.6,449.712,368,434.264,368,417.832c0-13.216-4.368-26.328-12.688-37.416
			C348.016,370.688,344,358.632,344,346.48c0-6.096,0.976-12.12,2.896-17.88l3.816-11.456l9.896-6.6
			c6.416-4.288,13.888-6.544,21.608-6.544h2.832C406.52,304,424,321.48,424,342.952C424,347.936,423.064,352.808,421.208,357.432z" fill="rgb(255,255,200)"
			/>
	</g>
</g>
<g>
</g>
<g>
</g>
<g>
</g>
<g>
</g>
<g>
</g>
<g>
</g>
<g>
</g>
<g>
</g>
<g>
</g>
<g>
</g>
<g>
</g>
<g>
</g>
<g>
</g>
<g>
</g>
<g>
</g>
</svg>
