<?xml version="1.0" encoding="iso-8859-1"?>
<!-- Generator: Adobe Illustrator 16.0.0, SVG Export Plug-In . SVG Version: 6.00 Build 0)  -->
<svg version="1.1" id="Capa_1" xmlns="http://www.w3.org/2000/svg" xmlns:xlink="http://www.w3.org/1999/xlink" x="0px" y="0px" fill="rgb(255,255,200)"
	 width="21.006px" height="21.007px" viewBox="0 0 21.006 21.007" style="enable-background:new 0 0 21.006 21.007;"
	 xml:space="preserve">
<g>
	<g>
		<polygon points="9.616,2.423 10.591,2.192 11.334,2.864 11.415,1.867 12.284,1.366 11.358,0.98 11.152,0 10.501,0.761 
			9.504,0.653 10.025,1.511 		"/>
		<polygon points="11.39,18.583 10.415,18.815 9.671,18.142 9.591,19.139 8.722,19.642 9.647,20.026 9.853,21.006 10.504,20.246 
			11.501,20.354 10.98,19.497 		"/>
		<polygon points="5.695,3.948 6.423,3.261 7.404,3.471 6.975,2.568 7.478,1.699 6.483,1.827 5.816,1.083 5.63,2.067 4.715,2.472 
			5.594,2.955 		"/>
		<polygon points="15.313,17.058 14.583,17.745 13.603,17.535 14.032,18.439 13.53,19.308 14.523,19.179 15.192,19.923 
			15.376,18.939 16.292,18.533 15.414,18.053 		"/>
		<polygon points="2.476,6.421 3.062,7.231 3.348,6.271 4.302,5.964 3.479,5.396 3.48,4.393 2.685,5 1.733,4.689 2.064,5.635 
			1.475,6.443 		"/>
		<polygon points="18.531,14.586 17.945,13.776 17.658,14.734 16.704,15.044 17.527,15.611 17.528,16.615 18.321,16.007 
			19.274,16.317 18.941,15.373 19.533,14.563 		"/>
		<path d="M11.438,9.01l6.169,1.733l0.325-1.011l-7.366-0.989l6.207-1.583l-0.222-1.04L9.675,8.949l4.587-4.478l-0.714-0.789
			l-4.543,5.89l1.734-6.175L9.729,3.072l-0.99,7.368l-1.583-6.21L6.118,4.453l2.827,6.879L4.467,6.743L3.68,7.457L9.566,12
			l-6.172-1.736l-0.325,1.012l7.371,0.991l-6.213,1.584l0.224,1.038l6.878-2.827L6.74,16.539l0.715,0.787l4.539-5.882l-1.732,6.167
			l1.01,0.324l0.99-7.371l1.585,6.212l1.037-0.222l-2.826-6.877l4.476,4.585l0.788-0.713L11.438,9.01z M12.254,10.523l-0.247,0.878
			l-0.646,0.631l-0.878,0.224l-0.874-0.245l-0.632-0.647l-0.225-0.882l0.244-0.87l0.65-0.633l0.88-0.225l0.872,0.245l0.632,0.648
			L12.254,10.523z"/>
		<polygon points="1.512,10.981 2.423,11.391 2.191,10.415 2.864,9.673 1.867,9.592 1.366,8.722 0.979,9.646 0,9.854 0.761,10.505 
			0.653,11.501 		"/>
		<polygon points="20.246,10.502 20.353,9.504 19.496,10.025 18.583,9.616 18.815,10.59 18.142,11.336 19.139,11.416 19.641,12.283 
			20.026,11.36 21.006,11.152 		"/>
		<polygon points="3.47,13.605 2.569,14.032 1.699,13.531 1.826,14.522 1.082,15.192 2.066,15.377 2.471,16.293 2.954,15.414 
			3.948,15.313 3.259,14.584 		"/>
		<polygon points="17.535,7.405 18.437,6.978 19.306,7.478 19.176,6.485 19.923,5.815 18.939,5.633 18.534,4.715 18.051,5.594 
			17.056,5.695 17.744,6.423 		"/>
		<polygon points="6.271,17.66 5.964,16.707 5.397,17.527 4.393,17.526 4.999,18.322 4.688,19.274 5.634,18.943 6.443,19.532 
			6.421,18.53 7.23,17.944 		"/>
		<polygon points="14.734,3.35 15.043,4.305 15.611,3.483 16.614,3.481 16.005,2.687 16.317,1.734 15.373,2.067 14.563,1.474 
			14.585,2.477 13.776,3.063 		"/>
	</g>
</g>
<g>
</g>
<g>
</g>
<g>
</g>
<g>
</g>
<g>
</g>
<g>
</g>
<g>
</g>
<g>
</g>
<g>
</g>
<g>
</g>
<g>
</g>
<g>
</g>
<g>
</g>
<g>
</g>
<g>
</g>
</svg>
